<svg height="512pt" viewBox="0 0 512 512" width="512pt" xmlns="http://www.w3.org/2000/svg"><path d="m256 91c-90.980469 0-165 74.019531-165 165s74.019531 165 165 165 165-74.019531 165-165-74.019531-165-165-165zm90 240c0 8.289062-6.710938 15-15 15h-150c-8.289062 0-15-6.710938-15-15v-150c0-8.289062 6.710938-15 15-15h150c8.289062 0 15 6.710938 15 15zm0 0"/><path d="m196 196h120v120h-120zm0 0"/><path d="m256 0c-140.609375 0-256 115.390625-256 256s115.390625 256 256 256 256-115.390625 256-256-115.390625-256-256-256zm0 451c-107.519531 0-195-87.480469-195-195s87.480469-195 195-195 196 87.480469 196 195-88.480469 195-196 195zm0 0"/></svg>
